<?xml version="1.0" encoding="UTF-8" standalone="no"?>
<!-- Created with Inkscape (http://www.inkscape.org/) -->

<svg
   xmlns:dc="http://purl.org/dc/elements/1.1/"
   xmlns:cc="http://creativecommons.org/ns#"
   xmlns:rdf="http://www.w3.org/1999/02/22-rdf-syntax-ns#"
   xmlns:svg="http://www.w3.org/2000/svg"
   xmlns="http://www.w3.org/2000/svg"
   xmlns:sodipodi="http://sodipodi.sourceforge.net/DTD/sodipodi-0.dtd"
   xmlns:inkscape="http://www.inkscape.org/namespaces/inkscape"
   width="1"
   height="1"
   viewBox="0 0 1 1"
   id="svg5326"
   version="1.1"
   inkscape:version="0.91 r13725"
   sodipodi:docname="normalized.svg">
  <defs
     id="defs5328" />
  <sodipodi:namedview
     id="base"
     pagecolor="#ffffff"
     bordercolor="#666666"
     borderopacity="1.0"
     inkscape:pageopacity="0.0"
     inkscape:pageshadow="2"
     inkscape:zoom="256"
     inkscape:cx="4.1400394e-09"
     inkscape:cy="1.0214538"
     inkscape:document-units="px"
     inkscape:current-layer="svg5326"
     showgrid="false"
     inkscape:window-width="1920"
     inkscape:window-height="1152"
     inkscape:window-x="0"
     inkscape:window-y="0"
     inkscape:window-maximized="1"
     units="px"
     width="1mm"
     inkscape:showpageshadow="false"
     showborder="true"
     inkscape:snap-center="true"
     inkscape:snap-bbox="true"
     inkscape:snap-bbox-midpoints="true"
     inkscape:snap-object-midpoints="true"
     inkscape:snap-page="true" />
  <metadata
     id="metadata5331">
    <rdf:RDF>
      <cc:Work
         rdf:about="">
        <dc:format>image/svg+xml</dc:format>
        <dc:type
           rdf:resource="http://purl.org/dc/dcmitype/StillImage" />
        <dc:title></dc:title>
      </cc:Work>
    </rdf:RDF>
  </metadata>
  <path
     inkscape:connector-curvature="0"
     d="m -0.41421845,-0.37130752 a 0.29290498,0.29288649 35.614596 0 0 0,0.41419994 L -4.1384716e-8,0.45709242 0.41421845,0.04289242 a 0.29290498,0.29288649 35.614596 0 0 0,-0.41419994 0.29290498,0.29288649 35.614596 0 0 -0.414218491384716,0 0.29290498,0.29288649 35.614596 0 0 -0.414218408615284,0 z"
     style="opacity:0.5;fill:#ff0000;fill-opacity:1;stroke:none;stroke-width:1;stroke-linecap:round;stroke-linejoin:round;stroke-miterlimit:1;stroke-dasharray:none;stroke-opacity:1"
     id="heart"
     inkscape:transform-center-x="2.296875"
     inkscape:transform-center-y="-1.2421875">
    <title
       id="title6150">heart</title>
  </path>
  <path
     inkscape:transform-center-y="-0.04774575"
     d="M 1.3397448e-8,-0.5 0.11226698,-0.15452225 0.47552826,-0.15450848 0.18165179,0.05902225 0.29389262,0.40450851 0,0.191 l -0.29389264,0.21350849 0.11224085,-0.34548624 -0.29387646,-0.21353076 0.36326127,-1.374e-5 z"
     inkscape:randomized="0"
     inkscape:rounded="0"
     inkscape:flatsided="false"
     sodipodi:arg2="-0.9424778"
     sodipodi:arg1="-1.5707963"
     sodipodi:r2="0.191"
     sodipodi:r1="0.5"
     sodipodi:cy="0"
     sodipodi:cx="0"
     sodipodi:sides="5"
     id="star"
     style="opacity:0.5;fill:#ff0000;fill-opacity:1;stroke:none;stroke-width:1;stroke-linecap:round;stroke-linejoin:round;stroke-miterlimit:1;stroke-dasharray:none;stroke-opacity:1"
     sodipodi:type="star">
    <title
       id="title6148">star</title>
  </path>
  <path
     inkscape:connector-curvature="0"
     style="opacity:0.5;fill:#ff0000;fill-opacity:1;stroke:none;stroke-width:1;stroke-linecap:round;stroke-linejoin:round;stroke-miterlimit:1;stroke-dasharray:none;stroke-opacity:1"
     d="m -0.282255,-0.35623482 a 0.12694601,0.25058129 21.712395 0 0 -0.20167,0.2373 0.12694601,0.25058129 21.712395 0 0 0.0664,0.23778 0.12694601,0.25058129 21.712395 0 0 0.20119,-0.23778 0.12694601,0.25058129 21.712395 0 0 -0.0659,-0.2373 z m 0.5645,0 a 0.25058129,0.12694601 68.287605 0 0 -0.0659,0.2373 0.25058129,0.12694601 68.287605 0 0 0.20118,0.23778 0.25058129,0.12694601 68.287605 0 0 0.0664,-0.23778 0.25058129,0.12694601 68.287605 0 0 -0.20167,-0.2373 z m -0.28224999586,0.0122 a 0.30002148,0.34998644 0 0 0 -0.19191000414,0.0811 c 0.006,0.0412 0.004,0.0892 -0.0112,0.14404 -0.0191,0.0674 -0.0524,0.12854 -0.0908,0.17382 -5e-4,0.001 -0.002,0.001 -0.002,0.002 A 0.30002148,0.34998644 0 0 0 4.9500414e-4,0.35623518 0.30002148,0.34998644 0 0 0 0.296905,0.05692518 c -5e-4,-5e-4 -0.001,-0.001 -0.002,-0.002 -0.0384,-0.0453 -0.0716,-0.10644 -0.0908,-0.17382 -0.0156,-0.0548 -0.017,-0.10278 -0.0112,-0.14404 a 0.30002148,0.34998644 0 0 0 -0.1918,-0.0811 z m -0.08740000414,0.2373 c 0.0276,-7e-5 0.0504,0.0227 0.0503,0.0503 7e-5,0.0276 -0.0227,0.0503 -0.0503,0.0503 -0.0276,7e-5 -0.0504,-0.0227 -0.0503,-0.0503 -7e-5,-0.0276 0.0227,-0.0504 0.0503,-0.0503 z m 0.17482,0 c 0.0276,-7e-5 0.0504,0.0227 0.0503,0.0503 8e-5,0.0276 -0.0228,0.0503 -0.0503,0.0503 -0.0276,7e-5 -0.0504,-0.0227 -0.0503,-0.0503 -7e-5,-0.0276 0.0227,-0.0504 0.0503,-0.0503 z m -0.17482,0.0127 a 0.03750269,0.03749885 0 0 0 -0.0376,0.0376 0.03750269,0.03749885 0 0 0 0.0376,0.0376 0.03750269,0.03749885 0 0 0 0.0376,-0.0376 0.03750269,0.03749885 0 0 0 -0.0376,-0.0376 z m 0.17482,0 a 0.03750269,0.03749885 0 0 0 -0.0376,0.0376 0.03750269,0.03749885 0 0 0 0.0376,0.0376 0.03750269,0.03749885 0 0 0 0.0376,-0.0376 0.03750269,0.03749885 0 0 0 -0.0376,-0.0376 z m -0.0942,0.15039 a 0.10000537,0.09999907 0 0 1 0.007000004,0 0.10000537,0.09999907 0 0 1 0.10010999586,0.0996 0.10000537,0.09999907 0 0 1 -0.10010999586,0.1001 0.10000537,0.09999907 0 0 1 -0.10010000414,-0.1001 0.10000537,0.09999907 0 0 1 0.0933,-0.0996 z m -0.043,0.0498 0.04980000414,0.0752 0.04979999586,-0.0752 -0.0996,0 z"
     id="doggy">
    <title
       id="title6306">doggy</title>
  </path>
  <path
     id="kitty"
     style="opacity:0.5;fill:#ff0000;fill-opacity:1;stroke:none;stroke-width:0.1;stroke-linecap:round;stroke-linejoin:round;stroke-miterlimit:1;stroke-dasharray:none;stroke-opacity:1"
     d="m -0.4634,-0.49290998 0,0.4236 a 0.49303709,0.42072605 0 0 0 -0.0295,0.1412 A 0.49303709,0.42072605 0 0 0 0,0.49290997 0.49303709,0.42072605 0 0 0 0.4929,0.07189002 a 0.49303709,0.42072605 0 0 0 -0.0295,-0.14172 l 0,-0.42308 -0.26843,0.17896 a 0.49303709,0.42072605 0 0 0 -0.19499,-0.0347 0.49303709,0.42072605 0 0 0 -0.19499,0.0347 l -0.26843,-0.17896 z m 0.31136,0.40601 a 0.09268389,0.07944454 0 0 1 0.006,0 0.09268389,0.07944454 0 0 1 0.0931,0.0791 0.09268389,0.07944454 0 0 1 -0.0931,0.0797 0.09268389,0.07944454 0 0 1 -0.0926,-0.0797 0.09268389,0.07944454 0 0 1 0.0864,-0.0791 z m 0.29119,0 a 0.09268389,0.07944454 0 0 1 0.007,0 0.09268389,0.07944454 0 0 1 0.0926,0.0791 0.09268389,0.07944454 0 0 1 -0.0926,0.0797 0.09268389,0.07944454 0 0 1 -0.0931,-0.0797 0.09268389,0.07944454 0 0 1 0.0864,-0.0791 z m -0.28757,0.0264 a 0.03972129,0.05296008 0 0 0 -0.0367,0.0528 0.03972129,0.05296008 0 0 0 0.0393,0.0533 0.03972129,0.05296008 0 0 0 0.0398,-0.0533 0.03972129,0.05296008 0 0 0 -0.0398,-0.0528 0.03972129,0.05296008 0 0 0 -0.003,0 z m 0.29016,0 a 0.03972129,0.05296008 0 0 0 -0.0357,0.0528 0.03972129,0.05296008 0 0 0 0.0398,0.0533 0.03972129,0.05296008 0 0 0 0.0393,-0.0533 0.03972129,0.05296008 0 0 0 -0.0393,-0.0528 0.03972129,0.05296008 0 0 0 -0.004,0 z m 0.22653,0.14534 a 0.01324181,0.01324208 0 0 1 0.006,0 l 0,5e-4 a 0.01324181,0.01324208 0 0 1 0.006,0.0233 0.01324181,0.01324208 0 0 1 -0.005,0.003 l -0.17844,0.0533 0.20119,0 a 0.01324181,0.01324208 0 0 1 0.001,0 0.01324181,0.01324208 0 0 1 -0.001,0.0263999 l -0.20171,0 0.17896,0.0538 a 0.0132671,0.01326737 0 0 1 -0.008,0.0253 l -0.26223,-0.0791 -0.002,0 a 0.01324181,0.01324208 0 0 1 -0.002,-4.9991e-4 0.0132526,0.01325287 0 0 1 0,-5.001e-4 0.01324548,0.01324575 0 0 1 -5e-4,0 0.01324181,0.01324208 0 0 1 -0.002,-9.9999e-4 0.0132526,0.01325287 0 0 1 -0.001,-5e-4 0.01324181,0.01324208 0 0 1 -0.001,-0.001 0.0132526,0.01325287 0 0 1 -0.001,-5e-4 0.01324181,0.01324208 0 0 1 0,-4.999e-4 0.01324181,0.01324208 0 0 1 -0.002,-0.002 0.01324548,0.01324575 0 0 1 -5e-4,-5e-4 0.01324181,0.01324208 0 0 1 0,-5e-4 0.01324548,0.01324575 0 0 1 -5e-4,-5e-4 0.01324181,0.01324208 0 0 1 0,-4.999e-4 0.01324548,0.01324575 0 0 1 -5e-4,-0.001 0.01324181,0.01324208 0 0 1 0,-5e-4 0.01324548,0.01324575 0 0 1 -5e-4,-5e-4 0.01324181,0.01324208 0 0 1 0,-5e-4 0.01324548,0.01324575 0 0 1 0,-0.001 0.01324181,0.01324208 0 0 1 0,-4.999e-4 0.01324548,0.01324575 0 0 1 0,-0.001 0.01324181,0.01324208 0 0 1 0,-5e-4 0.01324548,0.01324575 0 0 1 0,-0.001 0.01324181,0.01324208 0 0 1 0,-5e-4 0.01324548,0.01324575 0 0 1 5e-4,-9.999e-4 0.01324181,0.01324208 0 0 1 5e-4,-0.002 0.01324548,0.01324575 0 0 1 0,-5e-4 0.01324181,0.01324208 0 0 1 0,-5e-4 0.01324548,0.01324575 0 0 1 0.001,-9.999e-4 0.01324181,0.01324208 0 0 1 0.003,-0.003 0.01324548,0.01324575 0 0 1 5e-4,-5e-4 0.01324181,0.01324208 0 0 1 5e-4,-5e-4 0.01324548,0.01324575 0 0 1 0.001,-5e-4 0.01324181,0.01324208 0 0 1 0.002,-0.001 0.01324548,0.01324575 0 0 1 0.003,-5e-4 0.01324548,0.01324575 0 0 1 0.001,0 0.01324548,0.01324575 0 0 1 0.003,-5e-4 l 0.26067,-0.0781 a 0.01324181,0.01324208 0 0 1 0.001,-5e-4 z m -0.74271,5e-4 a 0.01324181,0.01324208 0 0 1 0.001,0 0.01324181,0.01324208 0 0 1 0.007,5e-4 l 0.26067,0.0781 a 0.01324548,0.01324575 0 0 1 0.003,5e-4 0.01324548,0.01324575 0 0 0 5e-4,0 0.01324548,0.01324575 0 0 1 0.003,5e-4 0.01324181,0.01324208 0 0 1 0.002,0.001 0.01324548,0.01324575 0 0 1 0.001,5e-4 0.01324181,0.01324208 0 0 0 5e-4,5e-4 0.01324548,0.01324575 0 0 0 5e-4,5e-4 0.01324181,0.01324208 0 0 1 0.003,0.003 0.01324548,0.01324575 0 0 1 0.001,9.999e-4 0.01324181,0.01324208 0 0 0 0,5e-4 0.01324548,0.01324575 0 0 0 0,5e-4 0.01324181,0.01324208 0 0 1 5e-4,0.001 0.01324548,0.01324575 0 0 1 5e-4,0.001 0.01324181,0.01324208 0 0 0 0,5e-4 0.01324548,0.01324575 0 0 1 0,9.999e-4 0.01324181,0.01324208 0 0 0 0,5e-4 0.01324548,0.01324575 0 0 0 0,5.001e-4 0.01324181,0.01324208 0 0 0 0,4.999e-4 0.01324548,0.01324575 0 0 1 0,0.001 0.01324181,0.01324208 0 0 0 0,5e-4 0.01324548,0.01324575 0 0 0 -5e-4,4.999e-4 0.01324181,0.01324208 0 0 0 0,5.1e-4 0.01324548,0.01324575 0 0 1 -5e-4,0.001 0.01324181,0.01324208 0 0 0 0,5.001e-4 0.01324548,0.01324575 0 0 0 -5e-4,4.999e-4 0.01324181,0.01324208 0 0 0 0,5e-4 0.01324548,0.01324575 0 0 0 -5e-4,5e-4 0.01324181,0.01324208 0 0 1 -0.001,0.002 0.01324181,0.01324208 0 0 0 0,5.001e-4 0.0132526,0.01325287 0 0 1 -0.001,4.999e-4 0.01324181,0.01324208 0 0 1 -10e-4,0.001 0.0132526,0.01325287 0 0 1 -0.001,5.001e-4 0.01324181,0.01324208 0 0 1 -0.002,9.999e-4 0.01324548,0.01324575 0 0 0 -5e-4,0 0.0132526,0.01325287 0 0 0 0,5e-4 0.01324181,0.01324208 0 0 1 -0.002,5.001e-4 l -0.002,0 -0.26223,0.0791 a 0.0132671,0.01326737 0 0 1 -0.008,-0.0253 l 0.17895,-0.0538 -0.20171,0 a 0.01324181,0.01324208 0 0 1 -0.002,-0.0264001 0.01324181,0.01324208 0 0 1 0.002,0 l 0.2012,0 -0.17844,-0.0533 a 0.01324181,0.01324208 0 0 1 -0.005,-0.003 0.01324181,0.01324208 0 0 1 0.005,-0.0233 z m 0.29481,0.0331 0.1593,0 -0.0797,0.11895995 -0.0797,-0.11895995 z">
    <title
       id="title6445">kitty</title>
  </path>
  <path
     id="fishy"
     d="m 0.49999997,-0.16796375 -0.25,0.15039 c -0.45,-0.37499 -0.74999994,0.0996 -0.74999994,0.0996 0,0 0.29999995,0.47509 0.74999995,0.1001 l 0.25,0.1499 0,-0.49999 z m -0.77491,0.15039 c 0.0274,0 0.0498,0.0223 0.0498,0.0498 0,0.0275 -0.0223,0.0498 -0.0498,0.0498 -0.0275,0 -0.0503,-0.0223 -0.0503,-0.0498 0,-0.0275 0.0229,-0.0498 0.0503,-0.0498 z m 0,0.0122 a 0.03749988,0.03749883 0 0 0 -0.0376,0.0376 0.03749988,0.03749883 0 0 0 0.0376,0.0376 0.03749988,0.03749883 0 0 0 0.0376,-0.0376 0.03749988,0.03749883 0 0 0 -0.0376,-0.0376 z"
     style="fill:#00ff00;fill-rule:evenodd;stroke:none;stroke-width:1px;stroke-linecap:butt;stroke-linejoin:miter;stroke-opacity:1"
     inkscape:connector-curvature="0">
    <title
       id="title6500">fishy</title>
  </path>
</svg>
