<?xml version="1.0" standalone="no"?>
<!DOCTYPE svg PUBLIC "-//W3C//DTD SVG 20010904//EN"
 "http://www.w3.org/TR/2001/REC-SVG-20010904/DTD/svg10.dtd" [
<!ENTITY stroke_color "#FB26BB">
]>
<svg version="1.0" xmlns="http://www.w3.org/2000/svg"
 width="55px" height="55px" viewBox="0 0 55 55"
 preserveAspectRatio="xMidYMid meet">
<metadata>
Created by potrace 1.8, written by Peter Selinger 2001-2007
</metadata>
<g transform="translate(0,55) scale(0.042919,-0.042919)"
fill="&stroke_color;" stroke="&stroke_color;" stroke-width="3.5">
<path d="M50 1008 c0 -234 -2 -270 -20 -326 -71 -228 49 -475 290 -597 102
-51 187 -70 320 -70 133 0 220 19 320 70 124 63 236 181 280 294 34 86 38 211
11 299 -19 64 -21 93 -21 331 l0 261 -197 -98 -198 -98 -200 1 -200 2 -192 96
-193 97 0 -262z m482 -287 c71 -63 22 -161 -82 -161 -68 0 -112 37 -112 95 0
58 44 95 112 95 41 0 56 -5 82 -29z m371 9 c36 -28 48 -69 32 -107 -19 -44
-51 -63 -108 -63 -42 0 -54 5 -83 34 -22 22 -34 44 -34 61 0 17 12 39 34 61
30 30 41 34 84 34 34 0 57 -6 75 -20z m-520 -272 c90 -28 157 -54 157 -62 0
-7 -70 -34 -169 -64 -177 -54 -191 -58 -191 -43 0 5 53 25 118 45 64 20 125
40 135 44 10 4 -47 6 -127 4 -129 -4 -146 -2 -146 12 0 14 18 16 143 17 78 0
138 2 132 4 -5 2 -65 20 -132 41 -81 24 -123 42 -123 51 0 10 7 12 23 8 12 -4
93 -29 180 -57z m717 49 c0 -9 -46 -28 -122 -51 -68 -21 -127 -39 -133 -41 -5
-2 54 -4 133 -4 124 -1 142 -3 142 -17 0 -14 -17 -16 -146 -12 -80 2 -137 0
-127 -4 10 -4 71 -24 136 -44 64 -20 117 -40 117 -45 0 -15 -14 -11 -191 43
-99 30 -169 57 -169 64 0 8 69 34 163 64 89 28 167 53 172 55 19 7 25 5 25 -8z
m-370 -3 c0 -12 -81 -124 -90 -124 -9 0 -90 112 -90 124 0 4 41 6 90 6 50 0
90 -2 90 -6z"/>
<path d="M429 704 c-18 -22 -16 -81 4 -101 16 -16 18 -16 33 -1 19 19 21 82 4
103 -16 19 -24 19 -41 -1z"/>
<path d="M810 704 c-33 -39 -2 -135 34 -105 22 18 28 59 14 88 -16 33 -31 38
-48 17z"/>
</g>
</svg>
